<?xml version="1.0" encoding="UTF-8"?>
<svg version="1.1" xmlns="http://www.w3.org/2000/svg" width="72" height="72">
<path d="M0 0 C0.969375 0.721875 1.93875 1.44375 2.9375 2.1875 C5.80860038 4.71058821 7.35987759 7.61041369 9 11 C10.06201737 13.22739701 10.06201737 13.22739701 12 16 C14.76875705 24.69925601 12.79504461 32.96343495 9 41 C3.46208987 51.15017533 -3.85093989 57.2106524 -14.921875 60.5859375 C-24.69548997 62.53331191 -33.73430433 60.67037285 -42.25390625 55.6796875 C-50.89234326 49.68031759 -56.93568104 40.34144401 -59 30 C-59.43606327 23.94581932 -58.99275884 18.72918166 -57 13 C-56.34 13 -55.68 13 -55 13 C-54.06284078 11.516662 -53.20092526 9.9855331 -52.375 8.4375 C-46.96718324 -0.81994903 -39.62962276 -5.76693968 -29.4375 -8.75 C-17.79467882 -9.94413551 -9.30759892 -6.98989642 0 0 Z M-57 16 C-56 19 -56 19 -56 19 Z M10 16 C11 18 11 18 11 18 Z M-58 21 C-58 23.64 -58 26.28 -58 29 C-57.67 29 -57.34 29 -57 29 C-57 26.36 -57 23.72 -57 21 C-57.33 21 -57.66 21 -58 21 Z M11 21 C11 23.64 11 26.28 11 29 C11.33 29 11.66 29 12 29 C12 26.36 12 23.72 12 21 C11.67 21 11.34 21 11 21 Z " fill="#FA89A2" transform="translate(59,11)"/>
<path d="M0 0 C5.625 2.25 5.625 2.25 7 5 C8.98559792 5.72442394 8.98559792 5.72442394 11.3125 6.3125 C15.57846479 7.64858118 17.64061212 9.06768687 20 13 C21.23534045 16.70602135 21.45528745 19.09753614 21 23 C18.57970359 26.80660542 15.73965871 29.5068942 12 32 C6.75349928 32.4949529 3.49864961 31.72011372 -1 29 C-1.66 28.34 -2.32 27.68 -3 27 C-4.60875 26.6596875 -4.60875 26.6596875 -6.25 26.3125 C-11.06562402 24.62703159 -13.62624277 22.53096117 -16 18 C-17.05520983 13.5808662 -17.07687521 9.80458178 -14.7109375 5.83984375 C-10.33101902 0.58609917 -6.92672584 -0.74536196 0 0 Z " fill="#FDF4F6" transform="translate(34,26)"/>
<path d="M0 0 C5 5 5 5 7.4375 7.5625 C14.79112512 14.5574117 21.74973034 16.4435138 31.73535156 16.51513672 C38.7999131 16.33552922 44.03587557 13.66584718 50 10 C50.74765625 9.64421875 51.4953125 9.2884375 52.265625 8.921875 C54.57028016 7.69687811 54.90243409 6.33232756 56 4 C57.29470975 2.62913085 58.62150897 1.28659163 60 0 C59.15016295 5.90790336 56.44562828 9.14209885 52 13 C42.0709613 19.01445686 32.64449913 22.00369185 21.05078125 19.31640625 C12.32545213 16.38362477 5.2779813 11.58709812 0 4 C0 2.68 0 1.36 0 0 Z " fill="#1E1114" transform="translate(6,52)"/>
<path d="M0 0 C0.60328125 0.05800781 1.2065625 0.11601562 1.828125 0.17578125 C1.828125 1.16578125 1.828125 2.15578125 1.828125 3.17578125 C0.9 3.98015625 0.9 3.98015625 -0.046875 4.80078125 C-3.07881389 8.18941884 -3.45739682 11.77609983 -4.171875 16.17578125 C-6.77757242 15.63203034 -7.96305124 15.37714702 -9.921875 13.48828125 C-11.57790092 10.4246333 -11.6636824 8.61843308 -11.171875 5.17578125 C-8.45292177 -0.26212522 -5.57398927 -0.31466068 0 0 Z " fill="#FD90A8" transform="translate(33.171875,30.82421875)"/>
<path d="M0 0 C1.875 0.3125 1.875 0.3125 4 1 C6.50031654 4.75047482 6.53603554 6.55856266 6 11 C3.9375 13.9375 3.9375 13.9375 1 16 C-2.6875 16.4375 -2.6875 16.4375 -6 16 C-6.66 15.34 -7.32 14.68 -8 14 C-7.236875 13.360625 -6.47375 12.72125 -5.6875 12.0625 C-2.24936764 8.68297217 -1.22086326 4.55590437 0 0 Z " fill="#FD8FA8" transform="translate(44,37)"/>
<path d="M0 0 C0.33 0.99 0.66 1.98 1 3 C2.65 3 4.3 3 6 3 C5.67 4.98 5.34 6.96 5 9 C2.69 9 0.38 9 -2 9 C-2.33 6.69 -2.66 4.38 -3 2 C-2.01 1.34 -1.02 0.68 0 0 Z " fill="#FDEFF2" transform="translate(29,16)"/>
<path d="M0 0 C3.11670579 5.47293537 2.80669675 11.05099065 1.171875 17.02734375 C-1.43788032 24.43788032 -1.43788032 24.43788032 -4 27 C-3.54177532 23.53058454 -3.10868317 20.32604951 -2 17 C-1.74209367 13.786917 -1.55803856 10.57999983 -1.39453125 7.36132812 C-1.10085306 2.20170612 -1.10085306 2.20170612 0 0 Z M0 5 C0 7.64 0 10.28 0 13 C0.33 13 0.66 13 1 13 C1 10.36 1 7.72 1 5 C0.67 5 0.34 5 0 5 Z " fill="#896268" transform="translate(70,27)"/>
<path d="M0 0 C2.39084336 3.58626504 2.31834638 5.54818135 2.5 9.8125 C2.6612303 13.57319667 2.87334793 16.6295427 4.09375 20.19921875 C5.02368318 23.07319327 5.06345863 24.23500757 4 27 C3.35004703 25.58521865 2.70521278 24.16808513 2.0625 22.75 C1.70285156 21.96109375 1.34320313 21.1721875 0.97265625 20.359375 C-0.63053112 16.47051889 -1.13782076 13.20520839 -1.125 9 C-1.12757812 8.154375 -1.13015625 7.30875 -1.1328125 6.4375 C-1.00833711 4.15301056 -0.63877457 2.19008426 0 0 Z M0 5 C0 7.64 0 10.28 0 13 C0.33 13 0.66 13 1 13 C1 10.36 1 7.72 1 5 C0.67 5 0.34 5 0 5 Z " fill="#976B71" transform="translate(1,27)"/>
<path d="M0 0 C0.80695312 0.15339844 1.61390625 0.30679688 2.4453125 0.46484375 C6.59047179 1.0888952 10.6922296 1.34627204 14.875 1.5625 C15.65875 1.60568359 16.4425 1.64886719 17.25 1.69335938 C19.16650649 1.79853351 21.08323333 1.89967925 23 2 C21.875 3.48046875 21.875 3.48046875 20 5 C17.1875 5.36328125 17.1875 5.36328125 14 5.3125 C12.4221875 5.30669922 12.4221875 5.30669922 10.8125 5.30078125 C8 5 8 5 5 3 C3.34416775 2.30686092 1.67889021 1.63525576 0 1 C0 0.67 0 0.34 0 0 Z " fill="#140D0E" transform="translate(22,67)"/>
<path d="M0 0 C-0.61090226 6.47556391 -0.61090226 6.47556391 -2.4375 8.9375 C-4 10 -4 10 -6 10 C-6.33663062 6.29706315 -6.47736015 4.60465619 -4.125 1.625 C-2 0 -2 0 0 0 Z " fill="#FD93AB" transform="translate(39,37)"/>
<path d="M0 0 C0.68359375 1.765625 0.68359375 1.765625 1 4 C-0.21484375 5.921875 -0.21484375 5.921875 -1.9375 7.75 C-2.50339844 8.36359375 -3.06929687 8.9771875 -3.65234375 9.609375 C-4.31943359 10.29773438 -4.31943359 10.29773438 -5 11 C-5.99 10.67 -6.98 10.34 -8 10 C-7.67 9.34 -7.34 8.68 -7 8 C-6.34 8 -5.68 8 -5 8 C-4.731875 7.4225 -4.46375 6.845 -4.1875 6.25 C-2.98280141 3.9674132 -1.59201885 2.0262058 0 0 Z " fill="#28161A" transform="translate(65,52)"/>
<path d="M0 0 C1.98 0.99 3.96 1.98 6 3 C5.67 4.32 5.34 5.64 5 7 C5 6.01 5 5.02 5 4 C3.35 4 1.7 4 0 4 C0 2.68 0 1.36 0 0 Z " fill="#FDBAC9" transform="translate(30,15)"/>
<path d="M0 0 C3.3 0 6.6 0 10 0 C10 0.33 10 0.66 10 1 C6.7 1 3.4 1 0 1 C0 0.67 0 0.34 0 0 Z " fill="#FFB2B2" transform="translate(31,0)"/>
<path d="M0 0 C4 1 4 1 4 1 Z " fill="#FFB4C4" transform="translate(41,1)"/>
<path d="M0 0 C4 1 4 1 4 1 Z " fill="#FFB4C4" transform="translate(27,1)"/>
<path d="M0 0 C3 1 3 1 3 1 Z " fill="#FF8095" transform="translate(45,2)"/>
<path d="M0 0 C3 1 3 1 3 1 Z " fill="#FF8095" transform="translate(24,2)"/>
<path d="" fill="#FF95B4" transform="translate(0,0)"/>
<path d="" fill="#FF95B4" transform="translate(0,0)"/>
<path d="" fill="#FF809F" transform="translate(0,0)"/>
<path d="" fill="#FFAAAA" transform="translate(0,0)"/>
<path d="" fill="#FF8080" transform="translate(0,0)"/>
<path d="M0 0 C2 1 2 1 2 1 Z " fill="#FF8080" transform="translate(55,7)"/>
<path d="M0 0 C2 1 2 1 2 1 Z " fill="#FF8080" transform="translate(15,7)"/>
<path d="M0 0 C2 1 2 1 2 1 Z " fill="#FF9595" transform="translate(52,5)"/>
<path d="M0 0 C2 1 2 1 2 1 Z " fill="#FF9595" transform="translate(18,5)"/>
<path d="M0 0 C2 1 2 1 2 1 Z " fill="#FFBFDF" transform="translate(50,4)"/>
<path d="M0 0 C2 1 2 1 2 1 Z " fill="#FFBFDF" transform="translate(20,4)"/>
<path d="M0 0 C2 1 2 1 2 1 Z " fill="#FF95B4" transform="translate(48,3)"/>
<path d="M0 0 C2 1 2 1 2 1 Z " fill="#FF95B4" transform="translate(22,3)"/>
<path d="" fill="#FF80BF" transform="translate(0,0)"/>
<path d="" fill="#FF80BF" transform="translate(0,0)"/>
<path d="" fill="#FF80BF" transform="translate(0,0)"/>
<path d="" fill="#FF80BF" transform="translate(0,0)"/>
<path d="" fill="#FF9999" transform="translate(0,0)"/>
<path d="" fill="#FF9999" transform="translate(0,0)"/>
<path d="" fill="#FF9999" transform="translate(0,0)"/>
<path d="" fill="#FF9999" transform="translate(0,0)"/>
<path d="" fill="#FF80BF" transform="translate(0,0)"/>
<path d="" fill="#FF80BF" transform="translate(0,0)"/>
<path d="" fill="#FF9999" transform="translate(0,0)"/>
<path d="" fill="#FF9999" transform="translate(0,0)"/>
<path d="" fill="#FF9999" transform="translate(0,0)"/>
<path d="" fill="#FF9999" transform="translate(0,0)"/>
<path d="" fill="#FF9999" transform="translate(0,0)"/>
<path d="" fill="#FF9999" transform="translate(0,0)"/>
<path d="" fill="#FF80BF" transform="translate(0,0)"/>
<path d="" fill="#FF80BF" transform="translate(0,0)"/>
</svg>
